<?xml version="1.0" encoding="UTF-8" standalone="no"?>
<svg
   width="70"
   height="70"
   viewBox="0 0 70 70"
   version="1.1"
   id="svg31"
   sodipodi:docname="icon.svg"
   inkscape:export-filename="icon.png"
   inkscape:export-xdpi="192"
   inkscape:export-ydpi="192"
   inkscape:version="1.1.2 (0a00cf5339, 2022-02-04)"
   xmlns:inkscape="http://www.inkscape.org/namespaces/inkscape"
   xmlns:sodipodi="http://sodipodi.sourceforge.net/DTD/sodipodi-0.dtd"
   xmlns:xlink="http://www.w3.org/1999/xlink"
   xmlns="http://www.w3.org/2000/svg"
   xmlns:svg="http://www.w3.org/2000/svg">
  <sodipodi:namedview
     id="namedview33"
     pagecolor="#ffffff"
     bordercolor="#666666"
     borderopacity="1.0"
     inkscape:pageshadow="2"
     inkscape:pageopacity="0.0"
     inkscape:pagecheckerboard="0"
     showgrid="false"
     inkscape:zoom="4.6638861"
     inkscape:cx="115.14003"
     inkscape:cy="52.638507"
     inkscape:window-width="2486"
     inkscape:window-height="1016"
     inkscape:window-x="74"
     inkscape:window-y="27"
     inkscape:window-maximized="1"
     inkscape:current-layer="svg31" />
  <title
     id="title2">maintenance/static/description/icon</title>
  <defs
     id="defs10">
    <path
       d="M4 0h61c4 0 5 1 5 5v60c0 4-1 5-5 5H4c-3 0-4-1-4-5V5c0-4 1-5 4-5z"
       id="a" />
    <linearGradient
       x1="100%"
       y1="0%"
       x2="0%"
       y2="98.616%"
       id="c">
      <stop
         stop-color="#797C79"
         offset="0%"
         id="stop5" />
      <stop
         stop-color="#545554"
         offset="100%"
         id="stop7" />
    </linearGradient>
    <path
       id="icon-a"
       d="M4,5.35309892e-14 C36.4160122,9.87060235e-15 58.0836068,-3.97961823e-14 65,5.07020818e-14 C69,6.733808e-14 70,1 70,5 C70,43.0488877 70,62.4235458 70,65 C70,69 69,70 65,70 C61,70 9,70 4,70 C1,70 7.10542736e-15,69 7.10542736e-15,65 C7.25721566e-15,62.4676575 3.83358709e-14,41.8005206 3.60818146e-14,5 C-1.13686838e-13,1 1,5.75716207e-14 4,5.35309892e-14 Z" />
    <linearGradient
       id="icon-c"
       x1="70"
       x2="0"
       y1="0"
       y2="70"
       gradientUnits="userSpaceOnUse"
       gradientTransform="translate(-150.16618,-12.428875)">
      <stop
         offset="0%"
         stop-color="#269396"
         id="stop36" />
      <stop
         offset="100%"
         stop-color="#218689"
         id="stop38" />
    </linearGradient>
    <path
       id="icon-d"
       d="M35.5,22.75 C39.6529297,22.75 43.0195312,26.1166016 43.0195312,30.2695312 C43.0195312,34.4224609 39.6529297,37.7890625 35.5,37.7890625 C31.3470703,37.7890625 27.9804687,34.4224609 27.9804687,30.2695312 C27.9804687,26.1166016 31.3470703,22.75 35.5,22.75 Z M43.6256055,38.3165755 L40.7623112,37.6007161 C37.2411654,40.1333659 32.9730794,39.5681836 30.2377604,37.6007161 L27.3744661,38.3165755 C25.0790039,38.8904232 23.46875,40.9527799 23.46875,43.3188542 L23.46875,47.671875 C23.46875,49.0957161 24.6230339,50.25 26.046875,50.25 L44.953125,50.25 C46.3769661,50.25 47.53125,49.0957161 47.53125,47.671875 L47.53125,43.3188542 C47.53125,40.9527799 45.9209961,38.8904232 43.6256055,38.3165755 Z M50.3958333,39.6510417 C53.1644531,39.6510417 55.4088542,37.4066406 55.4088542,34.6380208 C55.4088542,31.869401 53.1644531,29.625 50.3958333,29.625 C47.6272135,29.625 45.3828125,31.869401 45.3828125,34.6380208 C45.3828125,37.4066406 47.6272135,39.6510417 50.3958333,39.6510417 Z M20.6041667,39.6510417 C23.3727865,39.6510417 25.6171875,37.4066406 25.6171875,34.6380208 C25.6171875,31.869401 23.3727865,29.625 20.6041667,29.625 C17.8355469,29.625 15.5911458,31.869401 15.5911458,34.6380208 C15.5911458,37.4066406 17.8355469,39.6510417 20.6041667,39.6510417 Z M22.3229167,47.671875 L22.3229167,43.3188542 C22.3229167,42.1335612 22.6518424,41.0125781 23.2326367,40.0533008 C21.0850586,41.1074674 18.6968555,40.6769206 17.0959831,39.5255013 L15.1870964,40.0027409 C13.6568359,40.3852344 12.5833333,41.7602344 12.5833333,43.3375456 L12.5833333,46.2395833 C12.5833333,47.1888346 13.352832,47.9583333 14.3020833,47.9583333 L22.3350195,47.9583333 C22.3273388,47.8630362 22.3233016,47.7674804 22.3229167,47.671875 Z M55.8129036,40.0026693 L53.9040169,39.5254297 C51.9041797,40.9638802 49.5434049,40.902793 47.7604883,40.0423437 C48.3454362,41.004056 48.6770833,42.1289779 48.6770833,43.3188542 L48.6770833,47.671875 C48.6770833,47.7683398 48.6722135,47.8636589 48.6649805,47.9583333 L56.6979167,47.9583333 C57.647168,47.9583333 58.4166667,47.1888346 58.4166667,46.2395833 L58.4166667,43.3375456 C58.4166667,41.7602344 57.3431641,40.3852344 55.8129036,40.0026693 Z" />
    <path
       id="icon-e"
       d="M35.5,20.75 C39.6529297,20.75 43.0195312,24.1166016 43.0195312,28.2695312 C43.0195312,32.4224609 39.6529297,35.7890625 35.5,35.7890625 C31.3470703,35.7890625 27.9804687,32.4224609 27.9804687,28.2695312 C27.9804687,24.1166016 31.3470703,20.75 35.5,20.75 Z M43.6256055,36.3165755 L40.7623112,35.6007161 C37.2411654,38.1333659 32.9730794,37.5681836 30.2377604,35.6007161 L27.3744661,36.3165755 C25.0790039,36.8904232 23.46875,38.9527799 23.46875,41.3188542 L23.46875,45.671875 C23.46875,47.0957161 24.6230339,48.25 26.046875,48.25 L44.953125,48.25 C46.3769661,48.25 47.53125,47.0957161 47.53125,45.671875 L47.53125,41.3188542 C47.53125,38.9527799 45.9209961,36.8904232 43.6256055,36.3165755 Z M50.3958333,37.6510417 C53.1644531,37.6510417 55.4088542,35.4066406 55.4088542,32.6380208 C55.4088542,29.869401 53.1644531,27.625 50.3958333,27.625 C47.6272135,27.625 45.3828125,29.869401 45.3828125,32.6380208 C45.3828125,35.4066406 47.6272135,37.6510417 50.3958333,37.6510417 Z M20.6041667,37.6510417 C23.3727865,37.6510417 25.6171875,35.4066406 25.6171875,32.6380208 C25.6171875,29.869401 23.3727865,27.625 20.6041667,27.625 C17.8355469,27.625 15.5911458,29.869401 15.5911458,32.6380208 C15.5911458,35.4066406 17.8355469,37.6510417 20.6041667,37.6510417 Z M22.3229167,45.671875 L22.3229167,41.3188542 C22.3229167,40.1335612 22.6518424,39.0125781 23.2326367,38.0533008 C21.0850586,39.1074674 18.6968555,38.6769206 17.0959831,37.5255013 L15.1870964,38.0027409 C13.6568359,38.3852344 12.5833333,39.7602344 12.5833333,41.3375456 L12.5833333,44.2395833 C12.5833333,45.1888346 13.352832,45.9583333 14.3020833,45.9583333 L22.3350195,45.9583333 C22.3273388,45.8630362 22.3233016,45.7674804 22.3229167,45.671875 Z M55.8129036,38.0026693 L53.9040169,37.5254297 C51.9041797,38.9638802 49.5434049,38.902793 47.7604883,38.0423437 C48.3454362,39.004056 48.6770833,40.1289779 48.6770833,41.3188542 L48.6770833,45.671875 C48.6770833,45.7683398 48.6722135,45.8636589 48.6649805,45.9583333 L56.6979167,45.9583333 C57.647168,45.9583333 58.4166667,45.1888346 58.4166667,44.2395833 L58.4166667,41.3375456 C58.4166667,39.7602344 57.3431641,38.3852344 55.8129036,38.0026693 Z" />
    <mask
       id="icon-b"
       fill="#ffffff">
      <use
         xlink:href="#icon-a"
         id="use45"
         x="0"
         y="0"
         width="100%"
         height="100%" />
    </mask>
  </defs>
  <g
     fill="none"
     fill-rule="evenodd"
     id="g29">
    <mask
       id="b"
       fill="#fff">
      <use
         xlink:href="#a"
         id="use12" />
    </mask>
    <g
       mask="url(#b)"
       id="g27">
      <path
         fill="url(#c)"
         d="M0 0H70V70H0z"
         id="path15" />
      <path
         d="M4 1h61c2.667 0 4.333.667 5 2V0H0v3c.667-1.333 2-2 4-2z"
         fill="#FFF"
         fill-opacity=".383"
         id="path17" />
      <path
         d="M42.863 70H4c-2 0-4-.149-4-4.17V42.7L22 21l35 33.362L42.863 70z"
         fill="#393939"
         opacity=".324"
         id="path19" />
      <path
         d="M4 69h61c2.667 0 4.333-1 5-3v4H0v-4c.667 2 2 3 4 3z"
         fill="#000"
         fill-opacity=".383"
         id="path21" />
      <path
         d="M34.821 40.185l-9.488-9.488-3.163 3.163h-3.162c-1.487 1.054-3.02 2.372-4.602 3.953-1.02 1.53-1.81 2.88-2.372 4.05-.622-2.173-.173-4.424 1.346-6.755 1.116-1.36 2.465-3.093 4.046-5.202v-2.372l7.907-7.906c2.635.527 3.69-.528 3.163-3.163l3.162-3.163 6.326 5.535A38.251 38.251 0 0 1 34.82 22c-2.636-.528-3.953.527-3.953 3.162l-2.372 2.372 8.697 9.488 3.953-.79L56.96 52.045v3.163l-4.744 4.744h-3.163L34.03 44.138v-2.372l.791-1.58z"
         fill="#000"
         opacity=".3"
         id="path23" />
      <path
         d="M34.821 38.185l-9.488-9.488-3.163 3.163h-3.162c-1.487 1.054-3.02 2.372-4.602 3.953-1.02 1.53-1.81 2.88-2.372 4.05-.622-2.173-.173-4.424 1.346-6.755 1.116-1.36 2.465-3.093 4.046-5.202v-2.372l7.907-7.906c2.635.527 3.69-.528 3.163-3.163l3.162-3.163 6.326 5.535A38.251 38.251 0 0 1 34.82 20c-2.636-.528-3.953.527-3.953 3.162l-2.372 2.372 8.697 9.488 3.953-.79L56.96 50.045v3.163l-4.744 4.744h-3.163L34.03 42.138v-2.372l.791-1.58z"
         fill="#FFF"
         id="path25" />
    </g>
  </g>
  <g
     id="g421"
     transform="matrix(0.70912579,0,0,0.74081906,99.981898,40.785858)">
    <use
       fill="#000000"
       fill-rule="nonzero"
       opacity="0.3"
       xlink:href="#icon-d"
       id="use56"
       x="0"
       y="0"
       width="100%"
       height="100%"
       transform="translate(-150.16618,-12.428875)" />
    <use
       fill="#ffffff"
       fill-rule="nonzero"
       xlink:href="#icon-e"
       id="use58"
       x="0"
       y="0"
       width="100%"
       height="100%"
       transform="translate(-150.16618,-12.428875)" />
  </g>
</svg>
